PathFileType	4	(X/Y/Z)	Patient4_TMGait_0pt3_01_right_04.trc.trc
DataRate	CameraRate	NumFrames	NumMarkers	Units	OrigDataRate	OrigDataStartFrame	OrigNumFrames
52.830188679245	52.830188679245	4	33	mm	52.830188679245	18	       141
Frame#	Time	Sacral			L.Shoulder			Chest			R.Shoulder			Neck			R.ASIS			L.ASIS			R.Thigh.Superior			R.Thigh.Lateral			R.Thigh.Inferior			R.Patella			L.Thigh.Superior			L.Thigh.Lateral			L.Thigh.Inferior			L.Patella			L.Shank.Superior			L.Shank.Lateral			L.Shank.Inferior			R.Shank.Superior			R.Shank.Lateral			R.Shank.Inferior			R.Heel			R.Midfoot.Superior			R.Midfoot.Lateral			R.Toe			L.Heel			L.Midfoot.Lateral			L.Midfoot.Superior			L.Toe			L.Elbow			L.Wrist			R.Elbow			R.Wrist			
		X1	Y1	Z1	X2	Y2	Z2	X3	Y3	Z3	X4	Y4	Z4	X5	Y5	Z5	X6	Y6	Z6	X7	Y7	Z7	X8	Y8	Z8	X9	Y9	Z9	X10	Y10	Z10	X11	Y11	Z11	X12	Y12	Z12	X13	Y13	Z13	X14	Y14	Z14	X15	Y15	Z15	X16	Y16	Z16	X17	Y17	Z17	X18	Y18	Z18	X19	Y19	Z19	X20	Y20	Z20	X21	Y21	Z21	X22	Y22	Z22	X23	Y23	Z23	X24	Y24	Z24	X25	Y25	Z25	X26	Y26	Z26	X27	Y27	Z27	X28	Y28	Z28	X29	Y29	Z29	X30	Y30	Z30	X31	Y31	Z31	X32	Y32	Z32	X33	Y33	Z33	

18	6.211785714286	795.612898193553	1004.473890027614	412.322499750206	1016.663948715602	1428.615836873203	250.947139770175	1084.173469312398	1361.429455825199	429.328881198873	971.028610921940	1440.852954542228	582.035944827290	979.139528312760	1493.712999205423	403.260510999140	1007.194424060310	945.751684570290	563.757093273580	1030.251778808702	956.291351195027	288.708521363617	1074.070228875858	759.950902324050	546.286530906582	1014.352632457889	645.441033399078	615.646241650479	1103.413356617031	598.229532499592	542.131380440893	1128.935972404850	516.348845151349	564.853871041390	1043.834101962410	731.806519488992	330.549606318677	942.201262619533	624.900477967561	265.070657586739	1001.141514219718	540.109982752439	341.066323869528	988.314748086101	472.156510935628	353.179928139011	952.646316160077	404.653537425714	344.907244442408	853.461180265037	300.803363148011	292.066331360814	879.616174116875	187.620402302219	371.991537112452	1107.566334324975	431.162108959975	576.126607921557	1045.569337908720	320.806195783330	636.584303692613	1117.057432071697	231.740829728140	593.663056113591	1020.336206631675	50.187932249504	558.767538731093	1183.756428134382	114.839996629114	616.019466495789	1097.855541615192	42.108169919284	638.355549405361	1302.322338226062	70.487056455220	651.146345976646	732.028830976517	41.670753883889	409.156229434141	809.318078084356	36.998079003618	332.714535844253	893.588182709845	95.711903664351	363.171865317395	1021.192028509025	39.573365676790	339.068722893581	1139.172973503421	1121.324966215999	108.833575116032	1394.254989711223	1081.460040808797	139.406285894983	802.994283832651	1136.647766315857	682.211500601844	773.728477891148	876.624042091556	697.943358824671	
19	6.230714285714	796.436453810996	1003.297998557913	413.767714254368	1018.301952419312	1427.762964312337	254.415569126783	1084.580096282214	1360.460326762734	433.177662999139	970.402139277172	1439.883557475082	585.159936917239	979.746134175940	1492.666217144606	406.561054183932	1007.052997014785	944.365437545030	566.584247537372	1031.730396063792	955.388914331634	291.432645668126	1072.146709175481	757.148045170001	550.359606789726	1009.671697538732	642.837715279618	618.263952829339	1099.340074126753	595.523269119307	545.647337778957	1124.115741958507	515.765655749694	566.880145075470	1042.158232535073	730.293436844131	332.532066735297	939.181328882772	624.829386884712	265.786895097023	996.390498365679	539.148213488363	341.691988020241	982.535395716598	471.634735465047	353.572442246906	947.238589002651	404.371820840709	345.106645000773	847.859761421278	300.684909106904	292.131229562069	873.901903350888	187.398581907323	372.013241492575	1106.562720405964	430.636027621743	577.967080518796	1049.542446891060	317.482876631539	638.850641022809	1124.754019495372	231.353089227494	595.471430857155	1034.953158286886	46.906446851901	561.519456524099	1197.230749737326	115.433920608050	616.804760923164	1113.770409251909	40.275824515167	639.933024403334	1317.605891695636	74.112156469766	649.886975877651	726.235529232625	41.415896305232	409.124866578726	803.523801805476	36.836834532551	332.671689424857	887.742738455858	95.622965040066	363.171641088844	1015.378327603433	39.606773337164	339.103609837194	1143.265124401741	1122.413368520557	111.636441750622	1399.122194913493	1091.155694853132	143.744372132723	797.694349702830	1138.136382653981	681.790302324306	765.525187351122	878.139323060085	696.213801859582	
20	6.249642857143	797.485313496074	1001.812221979640	415.581480586065	1019.753489381497	1426.756584678300	258.175829673584	1084.999759646216	1359.352286155408	437.247306724187	969.834085970687	1438.633369677845	588.621454853345	980.264119234312	1491.419967453523	410.197540168155	1007.289234683935	942.782353314078	569.566076060215	1033.401796978003	954.308500305663	294.333733981465	1071.038849949905	754.445824300271	554.311933405624	1006.015261637167	640.147563412933	620.627042536966	1096.276077804018	593.027809165635	548.783351692855	1120.104842646981	514.863331549003	568.580876816935	1040.841344220163	728.633204583529	334.622564190279	936.456707513894	624.612401604153	266.722149215612	992.003279054809	538.059568461778	342.509402749937	977.152310872049	470.963106469568	354.165319191844	942.104823231221	403.933107726592	345.496081232677	842.444519946642	300.522166228058	292.318234782861	868.248181664328	187.079112015625	372.099191268534	1105.591483276877	429.612315904105	579.503513887702	1052.285012697386	314.543575533865	640.552712740381	1130.087596773753	230.727967465376	596.761559988970	1045.314732041787	44.693531310500	563.541214104228	1206.684605936455	115.771443761653	617.053863139731	1125.066227131539	39.187583370795	641.044584827355	1328.303364732173	76.623229498245	648.637552271607	720.432068796014	41.105724936948	409.099605617016	797.720193061430	36.651071834667	332.625495883299	881.870320691737	95.520387370125	363.188171829836	1009.554816574929	39.640759995874	339.139957298456	1146.925952594990	1123.144891942832	114.790727215385	1403.270270062535	1099.936028429557	148.200903512246	793.965517590768	1138.571693583340	682.051482213829	760.370444475664	878.422687357095	695.149449441655	
21	6.268571428571	798.756640079616	1000.122000706597	417.758693432899	1021.070032154507	1425.676943141930	262.234814633539	1085.468999644055	1358.170304503233	441.546600107540	969.351571734579	1437.167916494703	592.423941337443	980.729348969695	1490.049909028610	414.180563871189	1007.910099177671	941.094607757634	572.699233516795	1035.254735367100	953.109084125839	297.422656163912	1070.822686022215	751.997103780029	558.039863677522	1003.577458388404	637.528450383211	622.722215397081	1094.370867530034	590.891310647186	551.480826625027	1117.104347115704	513.750360839513	569.949113196544	1039.875569943015	726.861522976950	336.818266926413	934.034542456405	624.287771624148	267.904620646601	988.008982833196	536.878252426624	343.540710451251	972.204292152189	470.158969290164	354.978962556058	937.264193958430	403.366613042851	346.090544208352	837.225125323460	300.360548885826	292.640211919383	862.668666540212	186.695730079022	372.247353456499	1104.855957359290	428.150354347646	580.751352438418	1053.963144566412	311.939913207144	641.745500240517	1133.255388489373	229.729468531315	597.560065564489	1051.527269738688	43.254643176957	564.831611830521	1212.288011561036	115.628707260125	616.841356703396	1131.844306349488	38.570495103836	641.749639193474	1334.637874200991	77.789908237147	647.574324747804	714.626109435352	40.782166915919	409.073592278674	791.916839808651	36.460899535203	332.576708864897	875.986907478771	95.417057788512	363.214581043745	1003.731312730302	39.666149383047	339.172356973336	1150.147784477166	1123.564697588577	118.266712000859	1406.740225556356	1107.765695970198	152.735733549438	791.735628205595	1137.989332131321	683.059326314224	758.162386363196	877.525412132561	694.932814084567	
